<svg xmlns="http://www.w3.org/2000/svg" viewBox="0 0 24 24">
  <defs>
    <linearGradient id="douyinGrad" x1="0%" y1="0%" x2="100%" y2="100%">
      <stop offset="0%" style="stop-color:#FF2C55"/>
      <stop offset="100%" style="stop-color:#5856D6"/>
    </linearGradient>
  </defs>
  <path fill="url(#douyinGrad)" d="M12.525.02c1.31-.02 2.61-.01 3.91-.02.08 1.53.63 3.09 1.75 4.17 1.12 1.11 2.68 1.65 4.21 1.73v4.08c-1.44-.05-2.89-.43-4.15-1.23-.65-.41-1.2-.96-1.63-1.6-.02 3.88.01 7.77-.02 11.65-.14 1.44-1.31 2.59-2.75 2.73-1.44.14-2.6-.91-2.74-2.35-.03-3.88-.01-7.76.02-11.64-.44.65-.99 1.2-1.64 1.62-1.26.8-2.71 1.18-4.15 1.23v-4.08c1.53-.08 3.09-.62 4.17-1.74 1.13-1.11 1.67-2.67 1.75-4.2-.01-1.3.01-2.6.02-3.9zm-1.51 3.48c-.01 1.11-.01 2.22-.01 3.33 0 .55-.45 1-1 1s-1-.45-1-1c0-1.09.01-2.19.01-3.28 0-.55.45-1 1-1s1 .45 1 1zm3 0c.01 1.11.01 2.22.01 3.33 0 .55-.45 1-1 1s-1-.45-1-1c0-1.09-.01-2.19-.01-3.28 0-.55.45-1 1-1s1 .45 1 1zM8.5 10.99c-.55 0-1-.45-1-1s.45-1 1-1 1 .45 1 1-.45 1-1 1zm7 0c-.55 0-1-.45-1-1s.45-1 1-1 1 .45 1 1-.45 1-1 1z"/>
</svg>